PathFileType	4	(X/Y/Z)	c:/Users/goper/Files/vsCode/490R/osim_files/C04/C04_Slow_01.trc
DataRate	CameraRate	NumFrames	NumMarkers	Units                	OrigDataRate	OrigDataStartFrame	OrigNumFrames
250.00	250.00	6	36	mm	250.0	2403	3203
                Frame#	Time	LPSIS			LASIS			LTH1			LTH2			LTH3			LTH4			LLFE			LMFE			LSH1			LSH2			LSH3			LSH4			LLMAL			LMMAL			LCAL			LMTP5			LTOE			LMTP1			RPSIS			RASIS			RTH1			RTH2			RTH3			RTH4			RLFE			RMFE			RSH1			RSH2			RSH3			RSH4			RLMAL			RMMAL			RCAL			RMTP1			RTOE			RMTP5		
		X1	Y1	Z1	X2	Y2	Z2	X3	Y3	Z3	X4	Y4	Z4	X5	Y5	Z5	X6	Y6	Z6	X7	Y7	Z7	X8	Y8	Z8	X9	Y9	Z9	X10	Y10	Z10	X11	Y11	Z11	X12	Y12	Z12	X13	Y13	Z13	X14	Y14	Z14	X15	Y15	Z15	X16	Y16	Z16	X17	Y17	Z17	X18	Y18	Z18	X19	Y19	Z19	X20	Y20	Z20	X21	Y21	Z21	X22	Y22	Z22	X23	Y23	Z23	X24	Y24	Z24	X25	Y25	Z25	X26	Y26	Z26	X27	Y27	Z27	X28	Y28	Z28	X29	Y29	Z29	X30	Y30	Z30	X31	Y31	Z31	X32	Y32	Z32	X33	Y33	Z33	X34	Y34	Z34	X35	Y35	Z35	X36	Y36	Z36

2403	9.60800	-991.50568	960.34381	286.06790	-1169.36060	947.74561	343.61050	-1107.09387	694.44714	414.43835	-1128.62463	637.27618	400.07126	-1169.23254	722.92273	414.40012	-1199.19727	667.47729	397.45691	-1222.51282	454.28641	360.31094	-1216.71277	447.87473	243.99110	-1194.88696	344.37451	365.83450	-1192.67139	298.05499	363.23480	-1249.08667	349.58191	363.86981	-1258.53296	302.68359	360.46786	-1274.69861	68.05444	339.65109	-1264.71484	93.46062	252.64795	-1202.29224	38.14983	294.10205	-1420.92969	31.67201	335.17117	-1421.58105	75.02758	291.56485	-1395.84058	39.58638	242.49548	-986.26300	962.58319	211.03151	-1152.49023	935.05237	127.96021	-1012.94617	720.06525	70.45873	-1007.51007	659.49213	83.47221	-1078.33118	718.43420	67.81609	-1084.33167	657.35437	79.49524	-1021.20789	440.13821	113.43221	-1026.49426	435.49158	224.33815	-897.80499	360.75201	96.45795	-876.28510	321.27252	102.19096	-950.77032	330.62564	101.71078	-918.72351	288.17480	106.86105	-766.40649	132.43024	127.22681	-774.41040	142.36700	218.33315	-695.56183	139.25116	168.80061	-852.07544	32.71981	229.09865	-886.63904	38.48030	190.64435	-853.29425	18.87185	126.31470
2404	9.61200	-996.04877	960.67340	286.43076	-1174.73401	948.34326	345.00162	-1111.64417	694.99023	415.01941	-1133.07507	637.68335	400.60220	-1173.96313	723.18054	414.53128	-1203.62366	667.73553	397.71442	-1226.57983	454.57300	360.48615	-1219.49194	448.22513	244.30435	-1197.91577	344.75833	366.15680	-1195.45056	298.33652	363.43329	-1252.32727	349.42532	363.95300	-1261.30981	302.48129	360.42514	-1275.42529	67.79018	339.57315	-1265.50684	93.31331	252.53123	-1202.62854	38.37803	294.14151	-1421.33435	30.36577	334.84271	-1422.27100	73.38084	290.99353	-1396.12402	38.36692	242.05609	-991.08911	962.60132	211.33075	-1157.36365	935.08215	128.38710	-1018.04211	719.66553	71.13995	-1012.79279	659.11017	84.18927	-1083.46289	718.23346	68.42794	-1089.67542	657.14325	80.14172	-1027.28699	439.84671	113.42135	-1032.85632	434.82806	224.31488	-903.07440	361.92035	96.49201	-880.30994	322.65320	101.65494	-955.15082	330.21283	100.83786	-923.35004	290.28354	105.13112	-768.96057	134.58447	126.93719	-777.39447	144.59261	217.94505	-698.32434	142.87057	168.66104	-852.80750	33.31869	229.10298	-887.08173	38.14146	190.66248	-853.42786	19.06907	126.28957
2405	9.61600	-1000.61139	960.91998	286.66895	-1178.73328	948.51813	344.69595	-1116.18420	695.57013	415.61209	-1137.51440	638.09314	401.11835	-1178.62915	723.66907	414.95209	-1208.12805	668.00427	398.01865	-1230.62195	455.00812	360.77625	-1222.34045	448.65991	244.67838	-1200.90942	345.10312	366.68552	-1196.90735	299.30127	364.45245	-1255.42407	349.37292	364.15247	-1264.02515	302.42346	360.61411	-1276.14111	67.57900	339.52426	-1266.44629	93.02228	252.68939	-1202.99170	38.66138	294.18503	-1421.80298	29.01383	334.55780	-1422.84314	71.74551	290.57007	-1396.46423	37.06421	241.72224	-995.67004	962.75787	211.58429	-1162.15393	935.09052	129.10376	-1023.30219	719.23584	71.87338	-1018.16071	658.65912	84.81285	-1088.64355	718.04700	69.04679	-1095.02734	656.91553	80.81396	-1033.54773	439.55106	113.26531	-1039.49231	434.08734	224.24332	-908.45844	363.10358	96.49802	-885.98029	324.18985	102.07894	-960.54749	331.36749	99.88219	-927.95605	291.14468	104.85153	-771.74994	136.69934	126.62373	-780.49506	146.86700	217.55086	-701.29535	146.63817	168.50810	-853.53210	34.05339	229.12192	-887.59326	37.84346	190.67967	-853.61133	19.36331	126.28941
2406	9.62000	-1005.16870	961.26288	286.95969	-1183.94946	949.11859	346.05301	-1120.76221	696.07288	416.24240	-1141.81140	638.51752	401.65506	-1183.16687	724.14453	415.33563	-1212.63916	668.37793	398.19229	-1235.20752	455.34134	360.98151	-1225.64258	449.00510	245.16656	-1203.85327	345.41953	367.18881	-1200.01501	299.36682	364.71555	-1258.42566	349.33075	364.44357	-1266.70850	302.30878	360.85544	-1276.95166	67.27549	339.45459	-1266.97693	92.92294	252.65826	-1203.31250	38.95352	294.26208	-1422.32178	27.63355	334.21500	-1423.45837	70.29118	290.23590	-1396.94360	35.82803	241.60548	-1000.41748	962.83173	211.85933	-1166.75940	935.06671	129.85014	-1028.51331	718.82404	72.58393	-1023.59003	658.18054	85.46547	-1093.83228	717.84869	69.79865	-1100.45386	656.73523	81.31952	-1040.04419	439.26895	113.06279	-1046.35669	433.33588	223.96597	-914.06049	364.28412	96.49120	-890.46490	325.58133	101.46791	-965.31165	331.31256	100.20575	-932.73590	292.05627	104.32124	-774.46088	139.07288	126.31594	-783.84381	149.22052	217.09404	-704.58539	150.50009	168.19969	-854.42200	34.78787	229.16536	-888.10065	37.48550	190.61334	-853.86951	19.72095	126.27816
2407	9.62400	-1009.59717	961.55505	287.21954	-1187.89441	949.35303	345.76022	-1125.55518	696.51605	416.89398	-1146.30835	638.98492	402.32761	-1187.86340	724.58954	415.48538	-1217.21094	668.86517	398.53629	-1239.73804	455.62610	361.17599	-1229.60095	449.40262	245.61911	-1206.72388	345.68402	367.89368	-1203.00269	299.37051	365.15598	-1261.30725	349.27667	364.83810	-1269.30737	302.23071	361.16626	-1277.57214	67.06577	339.47025	-1267.71252	92.78458	252.69949	-1203.61414	39.26908	294.35123	-1422.65552	26.27559	334.01678	-1424.00281	68.89026	289.93030	-1397.34900	34.57584	241.43347	-1004.90753	962.94507	212.10033	-1171.50146	934.96210	130.57092	-1033.74512	718.39490	73.30168	-1029.07764	657.68182	86.13988	-1099.11414	717.59692	70.46400	-1105.93005	656.51276	81.99804	-1046.56787	438.92633	112.76684	-1053.32520	432.50638	223.72305	-919.90112	365.52252	96.35668	-895.77637	327.05389	101.31100	-970.67529	331.84402	99.68225	-937.69421	293.09131	103.76907	-777.58148	141.41829	125.92809	-787.22443	151.70143	216.64188	-707.94312	154.59651	167.96280	-855.24652	35.69356	229.19600	-888.74530	37.20888	190.55090	-854.19366	20.13359	126.29314
2408	9.62800	-1014.19922	961.86816	287.43240	-1193.16357	950.15765	346.97394	-1130.07654	697.11005	417.62018	-1150.75537	639.40460	402.94171	-1192.55176	725.11176	415.76523	-1221.66150	669.33990	398.82394	-1243.96484	455.94650	361.30676	-1233.82239	449.41541	245.96965	-1209.70703	345.81873	368.61087	-1205.89343	299.30151	365.69675	-1264.30969	349.16269	365.16370	-1272.00806	302.04376	361.42545	-1278.13000	66.84192	339.53970	-1268.75049	92.51314	252.95590	-1203.95679	39.51773	294.44241	-1423.11304	24.81399	333.87997	-1424.69861	67.41908	289.82028	-1397.57178	33.51959	241.33464	-1009.53894	963.00970	212.37039	-1176.31055	935.03522	131.27823	-1038.91077	717.94092	73.93783	-1034.51953	657.23309	86.72813	-1104.33386	717.48041	71.04924	-1111.33191	656.40253	82.42323	-1053.36633	438.50732	112.51345	-1060.50269	431.66760	223.45006	-925.88953	366.73990	96.18101	-901.22845	328.71445	101.24323	-976.08832	332.22641	98.99788	-942.78638	294.09314	103.22493	-780.83545	143.82378	125.57285	-790.93433	154.23347	216.11552	-711.59869	158.77283	167.62968	-856.12799	36.68909	229.20195	-888.67432	36.23013	190.83565	-854.54919	20.57373	126.29536
